<svg width="93" height="33" viewBox="0 0 93 33" fill="none" xmlns="http://www.w3.org/2000/svg">
<g id="KMD logo" clip-path="url(#clip0_2_69)">
<g id="Group">
<path id="Vector" d="M18.935 32.5237L8.74836 19.0686V32.4046C8.74836 32.7278 8.47762 33 8.15611 33H0.592249C0.270742 33 0 32.7278 0 32.4046V0.595361C0 0.272165 0.253821 0 0.592249 0H8.15611C8.47762 0 8.74836 0.272165 8.74836 0.595361V13.268L18.4782 0.459278C18.6981 0.170103 19.0535 0 19.4258 0H28.8002C29.0371 0 29.1894 0.289175 29.0371 0.476289L17.3614 15.8196C17.1921 16.0407 17.1921 16.3299 17.3614 16.534L29.071 31.9624C29.3586 32.3026 29.2909 32.5577 29.2402 32.6768C29.1894 32.7959 29.0202 33 28.5972 33H19.8826C19.5104 33 19.155 32.8299 18.935 32.5237Z" fill="white"/>
<path id="Vector_2" d="M56.5006 14.5608L58.7511 32.4727C58.785 32.7619 59.0388 33 59.3434 33H76.434C85.5715 33 93.0169 25.6005 93.0169 16.5C93.0169 7.39948 85.5715 0 76.434 0H66.4334C66.1796 0 65.9765 0.238144 66.0104 0.493299L67.1441 7.19536C67.178 7.39948 67.3472 7.55258 67.5672 7.55258H74.8772C80.4443 7.55258 83.9132 10.9887 83.9132 16.5C83.9132 19.2387 83.0672 21.501 81.4766 23.066C79.8859 24.6309 77.5846 25.4474 74.7926 25.4474H67.0934C66.9411 25.4474 66.8226 25.3454 66.7888 25.1923L62.6938 0.493299C62.643 0.204124 62.4061 0 62.1015 0H54.4869C54.25 0 54.03 0.153093 53.9454 0.374227L47.2107 17.2144L40.4929 0.374227C40.3914 0.153093 40.1714 0 39.9345 0H32.6922C32.4045 0 32.1507 0.204124 32.0999 0.493299L26.8374 31.8603C26.8204 32.1495 26.905 32.4557 27.0912 32.6598C27.2773 32.8809 27.548 33 27.8357 33H34.8919C35.1796 33 35.4334 32.7789 35.4842 32.4897L38.0562 14.5608L45.2817 32.6258C45.3663 32.8469 45.5863 33 45.8232 33H48.5983C48.8352 33 49.0551 32.8469 49.1398 32.6258L56.5006 14.5608Z" fill="white"/>
</g>
</g>
<defs>
<clipPath id="clip0_2_69">
<rect width="93" height="33" fill="white"/>
</clipPath>
</defs>
</svg>
